<?xml version="1.0" encoding="UTF-8" standalone="no"?>
<!-- Created with Inkscape (http://www.inkscape.org/) -->

<svg
   xmlns:dc="http://purl.org/dc/elements/1.1/"
   xmlns:cc="http://creativecommons.org/ns#"
   xmlns:rdf="http://www.w3.org/1999/02/22-rdf-syntax-ns#"
   xmlns:svg="http://www.w3.org/2000/svg"
   xmlns="http://www.w3.org/2000/svg"
   xmlns:xlink="http://www.w3.org/1999/xlink"
   xmlns:sodipodi="http://sodipodi.sourceforge.net/DTD/sodipodi-0.dtd"
   xmlns:inkscape="http://www.inkscape.org/namespaces/inkscape"
   width="240"
   height="350"
   id="svg2"
   version="1.1"
   inkscape:version="0.48.4 r9939"
   sodipodi:docname="blaface.svg">
  <defs
     id="defs4" />
  <sodipodi:namedview
     id="base"
     pagecolor="#ffffff"
     bordercolor="#666666"
     borderopacity="1.0"
     inkscape:pageopacity="0.0"
     inkscape:pageshadow="2"
     inkscape:zoom="1.4079209"
     inkscape:cx="213.04791"
     inkscape:cy="164.88564"
     inkscape:document-units="px"
     inkscape:current-layer="face"
     showgrid="false"
     inkscape:snap-nodes="true"
     inkscape:window-width="1680"
     inkscape:window-height="983"
     inkscape:window-x="-2"
     inkscape:window-y="-3"
     inkscape:window-maximized="1" />
  <metadata
     id="metadata7">
    <rdf:RDF>
      <cc:Work
         rdf:about="">
        <dc:format>image/svg+xml</dc:format>
        <dc:type
           rdf:resource="http://purl.org/dc/dcmitype/StillImage" />
      </cc:Work>
    </rdf:RDF>
  </metadata>
  <g
     inkscape:label="Layer 1"
     inkscape:groupmode="layer"
     id="layer1"
     transform="translate(0,-652.3622)">
    <g
       id="face">
      <path
         style="color:#000000;fill:#ffdac2;fill-opacity:1;fill-rule:nonzero;stroke:#c87137;stroke-width:0.92463653999999995px;stroke-linecap:butt;stroke-linejoin:miter;stroke-miterlimit:4;stroke-opacity:1;stroke-dasharray:none;stroke-dashoffset:0;marker:none;visibility:visible;display:inline;overflow:visible;enable-background:accumulate"
         d="m 204.64586,820.39389 c 0,0 5.19342,-11.5229 7.62785,-12.33438 2.43441,-0.81147 8.92621,-1.78523 11.19833,0 2.27211,1.78525 5.68029,15.90487 5.3557,23.8573 -0.32458,7.95243 -9.73766,21.26059 -11.36061,27.10318 -1.62295,5.84261 -6.32948,8.76391 -8.7639,8.76391 -2.43443,0 -6.00492,-2.27212 -6.97866,-5.8426 -0.97378,-3.57047 -0.16231,-10.22455 -0.16231,-10.22455 z"
         id="ear_l"
         inkscape:connector-curvature="0" />
      <path
         inkscape:connector-curvature="0"
         id="ear_r"
         d="m 35.888746,813.90213 c 0,0 -5.193422,-11.52291 -7.627846,-12.33439 -2.434429,-0.81147 -8.926201,-1.78523 -11.198333,0 -2.272111,1.78525 -5.680296,15.90486 -5.355708,23.8573 0.324579,7.95242 9.737665,21.26058 11.360604,27.10318 1.622945,5.84261 6.329491,8.7639 8.76392,8.7639 2.434423,0 6.004896,-2.2721 6.978657,-5.8426 0.973767,-3.57047 0.162293,-10.22456 0.162293,-10.22456 z"
         style="color:#000000;fill:#ffdac2;fill-opacity:1;fill-rule:nonzero;stroke:#c87137;stroke-width:0.92463653999999995px;stroke-linecap:butt;stroke-linejoin:miter;stroke-miterlimit:4;stroke-opacity:1;stroke-dasharray:none;stroke-dashoffset:0;marker:none;visibility:visible;display:inline;overflow:visible;enable-background:accumulate" />
      <path
         id="contour"
         style="fill:#ffdac2;stroke:#c87137;stroke-width:0.92463653999999995px;stroke-linecap:butt;stroke-linejoin:miter;stroke-opacity:1;fill-opacity:1"
         d="m 122.74937,697.43637 c 23.34537,-0.0429 49.82329,3.75034 67.36639,19.15319 11.70853,10.28009 15.05853,27.73165 18.49273,42.92956 2.57356,11.38919 1.30546,23.32776 1.32092,35.0041 0.0168,12.55635 0.44226,25.21396 -1.32092,37.6459 -1.20467,8.49384 -4.75986,16.51513 -6.28504,24.9573 -3.07807,17.0378 2.21213,33.54815 -5.74149,51.62252 -7.95363,18.07438 -23.64996,40.8124 -43.79259,50.09903 -17.33342,7.99146 -48.14061,3.65393 -57.256983,0.66047 -20.168868,-6.62273 -40.316807,-28.63184 -51.195939,-49.81082 -6.24503,-12.15753 -3.479001,-27.13394 -6.125262,-40.54302 -1.974585,-10.00553 -6.119908,-19.58644 -7.265007,-29.72046 -1.681089,-14.87727 -1.171337,-30.05148 0.660449,-44.91092 3.181764,-25.81048 -0.09053,-57.1088 17.832278,-75.9523 17.527341,-18.4277 47.878488,-21.08784 73.310464,-21.13455 z" />
      <g
         style="stroke:none"
         transform="matrix(1.2853071,0,0,1.2853071,-146.15076,641.68706)"
         id="pupilas">
        <g
           id="g3762"
           transform="matrix(0.98180373,0,0,0.98180373,-9.0894245,-35.738303)"
           style="stroke:none">
          <path
             transform="translate(-5.7142857,0)"
             d="m 204.28572,165.93361 a 12.857142,11.428572 0 1 1 -25.71429,0 12.857142,11.428572 0 1 1 25.71429,0 z"
             sodipodi:ry="11.428572"
             sodipodi:rx="12.857142"
             sodipodi:cy="165.93361"
             sodipodi:cx="191.42857"
             id="path3758"
             style="color:#000000;fill:#a2915e;fill-opacity:1;fill-rule:evenodd;stroke:none;stroke-width:1.70000005;marker:none;visibility:visible;display:inline;overflow:visible;enable-background:accumulate"
             sodipodi:type="arc" />
          <path
             sodipodi:type="arc"
             style="color:#000000;fill:#241c1c;fill-opacity:1;fill-rule:evenodd;stroke:none;stroke-width:1.70000005;marker:none;visibility:visible;display:inline;overflow:visible;enable-background:accumulate"
             id="path3760"
             sodipodi:cx="191.42857"
             sodipodi:cy="165.93361"
             sodipodi:rx="12.857142"
             sodipodi:ry="11.428572"
             d="m 204.28572,165.93361 a 12.857142,11.428572 0 1 1 -25.71429,0 12.857142,11.428572 0 1 1 25.71429,0 z"
             transform="matrix(0.58311619,0,0,0.58311619,74.089187,69.175034)" />
        </g>
        <use
           x="0"
           y="0"
           xlink:href="#g3762"
           id="use3794"
           transform="matrix(-1,0,0,1,413.80543,1.9311009)"
           width="744.09448"
           height="1052.3622"
           style="stroke:none" />
      </g>
      <path
         inkscape:connector-curvature="0"
         id="chin"
         d="m 101.796,931.49263 c 11.22772,-11.22773 23.41403,-9.90682 23.41403,-9.90682 0,0 14.21046,2.3223 20.81502,8.26638"
         style="fill:none;stroke:#c87137;stroke-width:0.92463654px;stroke-linecap:butt;stroke-linejoin:miter;stroke-opacity:1"
         sodipodi:nodetypes="ccc" />
      <g
         id="nose">
        <path
           style="fill:none;stroke:#c87137;stroke-width:0.92463654px;stroke-linecap:butt;stroke-linejoin:miter;stroke-opacity:1"
           d="m 100.95437,855.94551 c 0,0 -15.769082,11.17931 -11.888164,17.83227 4.623159,7.92544 11.227714,3.30228 15.850884,7.265 4.62319,3.96272 5.28364,7.26499 17.17184,6.60455 11.88818,-0.66045 10.61876,-1.93775 14.52999,-6.60454 4.4924,-5.36023 13.2091,-1.32092 17.17183,-8.58591 3.96273,-7.26503 -13.20909,-18.49274 -13.20909,-18.49274"
           id="lower_nose"
           inkscape:connector-curvature="0"
           sodipodi:nodetypes="csssssc" />
        <path
           style="fill:none;stroke:#c87137;stroke-width:0.92463654px;stroke-linecap:butt;stroke-linejoin:miter;stroke-opacity:1"
           d="m 110.8612,807.73231 c -2.64182,12.54863 -4.62318,27.73909 -2.64182,38.96681"
           id="path3784"
           inkscape:connector-curvature="0" />
      </g>
      <path
         style="fill:#d35f5f;stroke:#c87137;stroke-width:0.92463654px;stroke-linecap:butt;stroke-linejoin:miter;stroke-opacity:1"
         d="M 173.28125 249.5 L 71.5625 250.8125 C 81.799543 251.14273 103.83158 253.58518 121.25 253.3125 C 138.66843 253.03978 160.7326 251.48139 173.28125 249.5 z "
         transform="translate(0,652.3622)"
         id="mouth" />
      <g
         id="hair">
        <path
           style="color:#000000;fill:#501616;fill-opacity:1;fill-rule:evenodd;stroke:#280b0b;stroke-width:2.18502235;stroke-linecap:butt;stroke-linejoin:miter;stroke-miterlimit:4;stroke-opacity:1;stroke-dasharray:none;stroke-dashoffset:0;marker:none;visibility:visible;display:inline;overflow:visible;enable-background:accumulate"
           id="path3862"
           d="m 72.826308,701.31403 c 1.821085,2.65393 4.072618,4.89218 6.561274,6.90923 4.228096,3.26586 8.900139,5.66782 13.877,7.55388 3.411495,1.139 6.854708,2.17028 10.287418,3.2391 3.77095,0.80724 7.3929,2.13724 11.1149,3.12401 2.41166,0.6464 4.88931,0.88301 7.37571,0.95198 2.79003,0.0757 5.58094,0.0736 8.37169,0.0547 0.47433,-0.005 0.94991,0.0204 1.42296,-0.0147 0.42073,-0.0312 0.83152,-0.15279 1.2523,-0.18356 1.89334,-0.13842 3.74667,0.145 5.6123,0.41193 2.65083,0.32839 5.2673,0.89329 7.80382,1.72254 1.77534,0.48649 3.59218,0.72894 5.3935,1.10404 2.25843,0.36094 4.53705,0.7202 6.731,1.37984 2.3666,0.96067 4.69164,1.90434 7.20047,2.41622 2.51771,0.41424 4.99847,0.96828 7.5435,1.21052 2.07306,-0.0573 4.05149,0.54107 6.08675,0.8121 2.18607,0.32068 4.41892,0.0482 6.58748,0.44468 1.88016,0.33509 3.77084,0.77953 5.67739,0.86048 2.31443,0.42176 4.65576,0.61797 7.00297,0.72444 1.97856,0.0707 3.95873,0.0632 5.93822,0.0603 1.78217,-0.47337 3.60947,-0.69438 5.44397,-0.82697 2.22467,0.20138 3.70799,1.46391 4.81362,3.31726 0.70309,1.86734 2.01648,3.3332 3.12672,4.94859 0.85221,1.48019 1.67914,2.97329 2.48576,4.47884 1.05731,1.28219 1.771,2.7696 2.53123,4.2333 0.80753,1.5505 0.98152,3.27658 1.18654,4.98149 0.0653,1.72015 1.23624,2.74409 2.08316,4.0983 0,0 -15.8553,13.61644 -15.8553,13.61644 l 0,0 c -0.66788,-1.61135 -2.46958,-2.6801 -2.4761,-4.63542 -0.35013,-1.4897 -0.23147,-3.0646 -0.8373,-4.49859 -0.70682,-1.46321 -1.37002,-2.94539 -2.44076,-4.19181 -0.82862,-1.4341 -1.62674,-2.89099 -2.37344,-4.3676 -1.07278,-1.70108 -2.51488,-3.16472 -3.25775,-5.07083 -0.61372,-1.31847 -1.65752,-1.78688 -3.11285,-1.57747 -1.86484,0.22274 -3.70779,0.66639 -5.59017,0.68437 -1.99725,-0.0147 -3.99567,-0.0416 -5.98873,-0.18399 -2.35393,-0.18206 -4.69276,-0.47772 -7.03431,-0.77307 -1.93774,-0.25146 -3.87355,-0.49463 -5.79053,-0.8783 -2.20147,-0.16497 -4.41785,-0.15484 -6.60758,-0.47241 -1.99027,-0.33284 -3.96093,-0.73727 -5.98679,-0.80877 -2.5822,-0.34319 -5.11298,-0.9606 -7.67853,-1.4056 -2.50041,-0.63736 -4.85405,-1.63432 -7.30653,-2.42002 -2.19805,-0.52016 -4.41671,-0.90868 -6.64489,-1.27118 -1.87447,-0.36129 -3.78819,-0.56181 -5.57916,-1.2709 -2.40715,-0.79606 -4.91394,-1.26386 -7.43409,-1.52561 -2.70107,-0.28601 -5.36972,-0.0851 -8.07857,-0.0526 -2.85328,-0.004 -5.70868,0.0549 -8.56057,-0.0319 -2.5596,-0.21289 -5.08543,-0.66596 -7.53978,-1.44012 -3.705932,-1.12474 -7.397172,-2.29147 -11.186798,-3.1104 -3.453093,-1.03867 -6.848489,-2.24145 -10.202096,-3.5685 -5.058582,-2.14175 -9.932386,-4.63149 -14.386987,-7.87669 -2.670019,-2.05788 -4.999268,-4.41266 -7.183393,-6.9801 0,0 15.621352,-13.90149 15.621352,-13.90149 z"
           inkscape:connector-curvature="0" />
        <path
           style="color:#000000;fill:#501616;fill-opacity:1;fill-rule:evenodd;stroke:#280b0b;stroke-width:2.18502235;stroke-linecap:butt;stroke-linejoin:miter;stroke-miterlimit:4;stroke-opacity:1;stroke-dasharray:none;stroke-dashoffset:0;marker:none;visibility:visible;display:inline;overflow:visible;enable-background:accumulate"
           id="path3864"
           d="m 96.727765,696.08496 c 2.170626,3.86123 6.219995,6.1696 9.944185,8.29209 1.1736,0.57881 2.32588,1.20307 3.52082,1.73644 1.71208,0.76419 5.86728,2.30833 7.59601,2.97984 3.43564,1.33457 6.83565,2.75265 10.27218,4.0847 3.95731,1.58383 8.09021,2.36661 12.32238,2.62336 3.98915,0.3055 7.9528,-0.0543 11.9247,-0.38165 3.97386,-0.14783 7.90527,-0.74549 11.86263,-1.09809 3.42816,-0.3465 6.88705,-0.16342 10.31053,-0.51017 2.85566,-0.35235 5.72294,-0.60465 8.59618,-0.75373 1.43218,-0.14079 2.84643,0.22099 4.25405,0.44103 0,0 -14.48716,14.97198 -14.48716,14.97198 l 0,0 c -1.29859,-0.18826 -2.59283,-0.33851 -3.90756,-0.19616 -2.82689,0.14907 -5.64273,0.41755 -8.4609,0.67959 -3.41716,0.17783 -6.84506,0.15498 -10.25354,0.49636 -3.94359,0.37335 -7.8768,0.83972 -11.83563,1.03093 -4.06667,0.30944 -8.14632,0.56337 -12.22171,0.21967 -4.33703,-0.43068 -8.48802,-1.57295 -12.47327,-3.36675 -2.101,-0.90813 -4.18382,-1.85874 -6.29662,-2.73906 -5.06152,-2.109 -10.301191,-3.79804 -15.205105,-6.27784 -4.220205,-2.26206 -8.500633,-4.70945 -11.366065,-8.6702 0,0 15.903895,-13.56234 15.903895,-13.56234 z"
           inkscape:connector-curvature="0" />
        <path
           style="color:#000000;fill:#501616;fill-opacity:1;fill-rule:evenodd;stroke:#280b0b;stroke-width:2.18502235;stroke-linecap:butt;stroke-linejoin:miter;stroke-miterlimit:4;stroke-opacity:1;stroke-dasharray:none;stroke-dashoffset:0;marker:none;visibility:visible;display:inline;overflow:visible;enable-background:accumulate"
           id="path3866"
           d="m 139.01521,687.97673 c 0.0792,4.08425 3.87435,6.35922 6.94031,8.30825 4.74151,2.53782 9.99699,3.81895 15.26202,4.71561 4.66024,0.99397 9.45532,0.88034 14.19379,0.87314 5.18272,-0.11061 10.35383,0.27315 15.52715,0.52899 3.80288,0.26869 7.59802,-0.22879 11.38167,-0.55144 3.07583,-0.0721 5.84578,1.08344 8.68841,2.06495 2.51729,0.69935 5.03823,1.62466 6.98052,3.41581 1.45442,1.66305 1.7611,3.67108 1.62233,5.80229 -0.32163,2.31545 -0.55115,4.63856 -0.66906,6.97322 0.0288,2.5422 -0.31194,5.0538 -0.59785,7.57265 -0.26083,2.24114 -0.2782,4.49942 -0.57106,6.73643 -0.58014,2.65014 0.70901,4.40084 2.46997,6.21186 1.50351,1.87705 3.64316,2.90631 5.72255,3.99823 3.49015,1.83272 0.85244,0.56576 4.4294,2.205 2.57096,1.20936 5.25614,2.11934 7.82449,3.33347 0,0 -14.77107,14.36785 -14.77107,14.36785 l 0,0 c -2.5025,-1.25364 -5.12476,-2.22823 -7.63745,-3.46273 -4.30319,-2.01598 -0.39349,-0.14914 -4.5066,-2.2118 -2.3252,-1.16605 -4.70207,-2.26235 -6.39238,-4.32549 -2.08261,-2.16054 -3.9877,-4.43746 -3.75596,-7.62425 0.38765,-2.22307 0.47414,-4.44203 0.64954,-6.6926 0.27412,-2.48457 0.73968,-4.94826 0.68114,-7.45481 0.0792,-2.35498 0.17941,-4.71588 0.54409,-7.04732 0.22956,-1.47962 0.53224,-2.97814 -0.41657,-4.28971 -1.70082,-1.60118 -4.0706,-2.20498 -6.23019,-2.92886 -2.65391,-0.8991 -5.29894,-1.71705 -8.14663,-1.43069 -3.7675,0.21888 -7.54442,0.40624 -11.31513,0.11669 -5.16793,-0.25412 -10.33322,-0.62161 -15.51168,-0.40499 -4.81874,-0.027 -9.67586,-0.10864 -14.39468,-1.20002 -5.45927,-1.1008 -10.92572,-2.50736 -15.80451,-5.28286 -3.77612,-2.43705 -7.50611,-4.89414 -8.70459,-9.51193 0,0 16.50803,-12.80494 16.50803,-12.80494 z"
           inkscape:connector-curvature="0" />
        <path
           style="color:#000000;fill:#501616;fill-opacity:1;fill-rule:evenodd;stroke:#280b0b;stroke-width:2.18502235;stroke-linecap:butt;stroke-linejoin:miter;stroke-miterlimit:4;stroke-opacity:1;stroke-dasharray:none;stroke-dashoffset:0;marker:none;visibility:visible;display:inline;overflow:visible;enable-background:accumulate"
           id="path3868"
           d="m 85.643422,692.57814 c 7.42285,0.0842 14.811828,-1.17135 22.084108,-2.56144 1.4511,-0.32788 2.90315,-0.65144 4.35326,-0.98362 1.3368,-0.30621 2.68289,-0.57604 4.00741,-0.9316 3.70287,-0.99402 7.26969,-2.4254 10.97228,-3.43036 2.76186,-0.51735 5.52093,-1.305 8.34696,-1.40826 1.2167,-0.0445 3.00068,0.15324 4.22694,0.26452 3.35,0.26376 6.55721,1.34172 9.59701,2.72473 2.82013,1.3384 5.33199,3.19231 7.98663,4.80721 2.85983,1.70638 5.66956,3.55285 8.22946,5.68735 2.32604,2.1716 3.96284,4.91908 5.95491,7.37909 1.4824,2.13898 3.52112,3.78135 5.54754,5.37931 2.63173,2.11316 5.41936,4.05712 8.32172,5.78102 2.62035,1.69256 5.534,2.58065 8.59447,3.00685 2.19749,0.36229 4.35704,-0.18936 6.5311,-0.46956 2.61063,-0.005 5.20891,0.24924 7.8182,0.41581 2.59461,0.17082 5.19518,0.18949 7.79428,0.19315 1.64239,-0.32399 3.29061,-0.59252 4.95573,-0.76429 0,0 -14.08433,15.35891 -14.08433,15.35891 l 0,0 c -1.69758,0.2301 -3.39291,0.56809 -5.11313,0.53504 -2.61976,-0.0591 -5.24016,-0.13733 -7.85562,-0.30247 -2.51426,-0.19018 -5.04455,-0.39254 -7.55995,-0.094 -2.32265,0.29385 -4.64117,0.55984 -6.95295,-0.009 -3.20491,-0.70578 -6.23958,-1.87042 -9.01422,-3.65195 -2.95512,-1.81555 -5.84106,-3.73278 -8.55524,-5.89816 -2.1691,-1.67566 -4.3829,-3.38747 -5.90611,-5.70487 -1.87868,-2.37091 -3.37641,-5.05049 -5.59348,-7.12968 -2.52922,-2.05221 -5.27979,-3.8196 -8.09796,-5.44862 -2.52811,-1.63671 -5.00656,-3.35492 -7.76923,-4.58942 -2.88325,-1.20616 -5.86591,-2.16508 -9.01291,-2.33199 -4.08807,-0.25208 -8.04658,0.53735 -11.9976,1.55702 -6.29436,1.72985 -12.53084,3.67042 -18.993528,4.72039 -7.579571,1.38218 -15.196518,2.53954 -22.881006,3.12864 0,0 14.065256,-15.22976 14.065256,-15.22976 z"
           inkscape:connector-curvature="0" />
        <path
           style="color:#000000;fill:#501616;fill-opacity:1;fill-rule:evenodd;stroke:#280b0b;stroke-width:2.18502235;stroke-linecap:butt;stroke-linejoin:miter;stroke-miterlimit:4;stroke-opacity:1;stroke-dasharray:none;stroke-dashoffset:0;marker:none;visibility:visible;display:inline;overflow:visible;enable-background:accumulate"
           id="path3870"
           d="M 40.458962,713.63388 C 44.702033,704.85346 52.5476,698.3553 60.838619,693.248 c 4.021122,-2.02528 8.434141,-3.12353 12.645848,-4.68697 4.368793,-1.79048 8.849042,-3.21405 13.448872,-4.267 3.316076,-0.75765 6.714513,-0.96105 10.104142,-1.02515 2.72609,0.11005 5.247689,0.65739 7.706399,1.82276 2.59775,1.28373 4.98964,2.8247 7.24059,4.63711 2.0034,2.07309 4.42677,3.64675 6.91319,5.07554 1.82436,0.76196 3.41676,1.98547 5.30515,2.58631 1.9256,0.76911 3.98621,1.06005 6.03296,1.28937 0,0 -14.41319,14.9319 -14.41319,14.9319 l 0,0 c -2.17263,-0.35546 -4.33724,-0.79568 -6.4091,-1.55899 -1.92376,-0.80426 -3.66954,-1.94599 -5.50731,-2.9246 -2.4983,-1.56919 -4.95567,-3.20403 -7.056309,-5.29485 -2.150857,-1.64982 -4.426797,-3.12003 -6.917455,-4.21478 -2.239968,-0.8808 -4.606142,-1.2427 -7.014894,-1.22613 -3.243212,0.12706 -6.485054,0.38108 -9.649622,1.15194 -4.525098,1.11768 -8.892921,2.71108 -13.242407,4.37612 -4.210896,1.45794 -8.632432,2.65531 -12.344844,5.20018 -6.071366,4.95945 -3.253654,2.69997 12.614267,-11.70412 0.327475,-0.29727 -0.63764,0.61658 -0.913466,0.9623 -0.786191,0.98543 -1.162063,2.16958 -1.831095,3.22352 0,0 -17.091383,12.03142 -17.091383,12.03142 z"
           inkscape:connector-curvature="0" />
        <path
           style="color:#000000;fill:#501616;fill-opacity:1;fill-rule:evenodd;stroke:#280b0b;stroke-width:2.18502235;stroke-linecap:butt;stroke-linejoin:miter;stroke-miterlimit:4;stroke-opacity:1;stroke-dasharray:none;stroke-dashoffset:0;marker:none;visibility:visible;display:inline;overflow:visible;enable-background:accumulate"
           id="path3872"
           d="m 73.279253,692.97716 c 4.158462,-1.2287 8.134548,-2.99229 12.250319,-4.3559 4.06046,-1.52586 8.133893,-2.96451 12.377096,-3.89396 3.968722,-0.82591 7.982892,-0.37614 11.952712,0.13797 3.25552,0.56196 5.96417,2.22371 8.38243,4.39764 2.24704,2.12179 4.6282,4.08966 6.98471,6.08662 2.66029,1.82921 4.27547,3.64795 5.16132,6.78397 0.28585,1.43406 0.32509,2.89435 0.37383,4.34982 0,0 -16.35885,12.72018 -16.35885,12.72018 l 0,0 c 0.0143,-1.3344 0.038,-2.67179 -0.10617,-4.00136 -0.50637,-3.18469 -1.82853,-3.90917 -4.29788,-5.78371 -2.33438,-2.03143 -4.61195,-4.12298 -6.94013,-6.16077 -2.19418,-1.88011 -4.641738,-3.14008 -7.541875,-3.52534 -3.775399,-0.53514 -7.575687,-0.73385 -11.302714,0.28906 -4.119901,1.09745 -8.140708,2.47436 -12.145331,3.93509 -4.150872,1.52358 -8.301723,3.06503 -12.382328,4.76613 0,0 13.592916,-15.74544 13.592916,-15.74544 z"
           inkscape:connector-curvature="0" />
        <path
           style="color:#000000;fill:#501616;fill-opacity:1;fill-rule:evenodd;stroke:#280b0b;stroke-width:2.18502235;stroke-linecap:butt;stroke-linejoin:miter;stroke-miterlimit:4;stroke-opacity:1;stroke-dasharray:none;stroke-dashoffset:0;marker:none;visibility:visible;display:inline;overflow:visible;enable-background:accumulate"
           id="path3874"
           d="m 85.063734,696.21785 c 5.585668,-0.25308 11.118096,-1.10371 16.678266,-1.59629 3.57806,-0.39772 7.12158,-0.32968 10.64727,0.38499 3.12647,0.61699 5.56546,2.13975 7.72592,4.42543 2.07366,2.157 4.04251,4.39884 5.8516,6.7821 1.60399,2.16358 3.78124,3.51837 6.22148,4.54484 2.09851,0.67859 4.26135,1.19408 6.46912,1.20885 0.92993,-0.014 1.85931,-0.0508 2.78873,-0.0826 0,0 -14.23443,15.2267 -14.23443,15.2267 l 0,0 c -0.96987,0.0109 -1.9412,0.0272 -2.90898,-0.0561 -2.37019,-0.2797 -4.71272,-0.89179 -6.915,-1.81342 -2.70085,-1.28572 -5.11012,-2.88274 -6.92691,-5.31767 -1.72896,-2.34002 -3.64762,-4.51292 -5.69705,-6.57811 -1.90959,-1.94323 -4.04442,-3.13129 -6.783079,-3.52842 -3.342753,-0.50553 -6.707605,-0.45599 -10.075041,-0.20071 -5.685422,0.49705 -11.363431,1.06969 -17.034199,1.71367 0,0 14.192303,-15.11327 14.192303,-15.11327 z"
           inkscape:connector-curvature="0" />
        <path
           style="color:#000000;fill:#501616;fill-opacity:1;fill-rule:evenodd;stroke:#280b0b;stroke-width:2.18502235;stroke-linecap:butt;stroke-linejoin:miter;stroke-miterlimit:4;stroke-opacity:1;stroke-dasharray:none;stroke-dashoffset:0;marker:none;visibility:visible;display:inline;overflow:visible;enable-background:accumulate"
           id="path3876"
           d="m 136.789,681.3915 c 4.28926,-1.11251 8.70989,-1.46384 13.08663,-2.05638 4.8537,-0.81826 9.7326,-0.75447 14.62742,-0.57462 4.22369,0.14561 8.47519,0.35152 12.64725,1.05809 2.74955,0.91053 4.53911,3.15784 6.49037,5.15387 2.74102,2.59686 5.65334,5.00717 8.44761,7.54717 2.53293,2.33735 5.10875,4.62975 7.72962,6.8673 1.20784,0.85565 0.60544,0.43317 1.80708,1.26763 0,0 -15.14654,14.24163 -15.14654,14.24163 l 0,0 c -1.26182,-0.93214 -0.62525,-0.44023 -1.9063,-1.48013 -2.5167,-2.35194 -5.09054,-4.63712 -7.58902,-7.00971 -2.83891,-2.54338 -5.78482,-4.95642 -8.6266,-7.49308 -1.72503,-1.61256 -3.19441,-3.65046 -5.5779,-4.29288 -4.07068,-0.68031 -8.19688,-0.87982 -12.31701,-1.01115 -4.80846,-0.15792 -9.59642,-0.007 -14.35522,0.78179 -4.45825,0.57969 -8.92624,1.13727 -13.23522,2.4865 0,0 13.91783,-15.48603 13.91783,-15.48603 z"
           inkscape:connector-curvature="0" />
        <path
           style="color:#000000;fill:#501616;fill-opacity:1;fill-rule:evenodd;stroke:#280b0b;stroke-width:2.18502235;stroke-linecap:butt;stroke-linejoin:miter;stroke-miterlimit:4;stroke-opacity:1;stroke-dasharray:none;stroke-dashoffset:0;marker:none;visibility:visible;display:inline;overflow:visible;enable-background:accumulate"
           id="path3878"
           d="m 53.094051,719.21252 c -3.078469,0.16699 -6.135228,0.41752 -9.183277,0.87562 -2.249844,0.39689 -4.72104,0.0952 -6.405053,1.85941 -4.743655,5.79714 -0.357138,0.36629 14.121213,-12.52942 0.204382,-0.18204 -0.381675,0.39518 -0.540752,0.6179 -0.540638,0.75694 -0.92069,1.6509 -1.28914,2.49769 -0.791195,2.10269 -0.450714,3.14498 0.66571,4.95922 1.245781,1.38252 2.358793,2.87256 3.531703,4.31485 0.595903,0.55727 1.238451,1.06166 1.867587,1.5802 0,0 -15.268096,14.18605 -15.268096,14.18605 l 0,0 c -0.752522,-0.60069 -1.523738,-1.18541 -2.174068,-1.90117 -1.209035,-1.52223 -2.382118,-3.06757 -3.676661,-4.52082 -1.258057,-2.00202 -2.43196,-3.89171 -1.768175,-6.36441 1.81649,-8.73078 10.870302,-14.29065 17.942216,-18.81952 2.233055,-0.7736 4.607087,-0.7601 6.926859,-1.12788 3.108279,-0.38401 6.247008,-0.49932 9.332521,-1.05714 0,0 -14.082587,15.42942 -14.082587,15.42942 z"
           inkscape:connector-curvature="0" />
        <path
           style="color:#000000;fill:#501616;fill-opacity:1;fill-rule:evenodd;stroke:#280b0b;stroke-width:2.18502235;stroke-linecap:butt;stroke-linejoin:miter;stroke-miterlimit:4;stroke-opacity:1;stroke-dasharray:none;stroke-dashoffset:0;marker:none;visibility:visible;display:inline;overflow:visible;enable-background:accumulate"
           id="path3880"
           d="m 54.820661,723.63937 c -3.602651,-0.15718 -7.210497,-0.12578 -10.815794,-0.15064 -3.441502,0.19873 -6.862985,0.40534 -10.287208,0.79399 -4.291569,0.4797 -9.574128,-0.37953 -12.697582,2.44404 -0.292015,0.27376 -1.072424,1.18429 -0.772072,0.91971 4.880618,-4.29923 8.074973,-0.65488 12.915776,-4.9989 -1.314932,1.45389 0.178808,-4.6848 0.09769,-2.82053 -0.100393,1.66515 0.169027,3.30841 0.756083,4.86328 0.674809,1.62578 1.622247,3.10916 2.540972,4.60324 1.065283,1.71818 1.470568,3.69067 2.493011,5.42973 1.178058,1.59687 2.904505,2.65565 4.434801,3.88487 l -15.204423,14.16213 0,0 c -1.760026,-1.36855 -3.662894,-2.60528 -5.026605,-4.4044 -0.10977,-0.19103 -0.896077,-1.5544 -0.95043,-1.6713 -0.566484,-1.2182 -0.641434,-2.62656 -1.454872,-3.73838 -1.015519,-1.58205 -2.029851,-3.16292 -2.857244,-4.85321 -0.709984,-1.77119 -1.247158,-3.62687 -1.192489,-5.55881 -0.0077,-2.12077 -0.08253,-4.2876 0.721774,-6.29496 5.278153,-4.90409 10.504588,-9.86446 15.834464,-14.7123 1.904514,-1.73226 4.994604,-1.75598 7.361679,-2.09141 2.363084,-0.16019 4.732845,-0.21017 7.090667,-0.45035 3.399611,-0.24585 6.812913,-0.21928 10.214792,-0.43488 3.699641,-0.0252 7.401497,0.004 11.098703,-0.15063 z"
           inkscape:connector-curvature="0"
           sodipodi:nodetypes="ccccscccccccccsccccsccccc" />
        <path
           style="color:#000000;fill:#501616;fill-opacity:1;fill-rule:evenodd;stroke:#280b0b;stroke-width:2.18502235;stroke-linecap:butt;stroke-linejoin:miter;stroke-miterlimit:4;stroke-opacity:1;stroke-dasharray:none;stroke-dashoffset:0;marker:none;visibility:visible;display:inline;overflow:visible;enable-background:accumulate"
           id="path3888"
           d="m 48.408523,729.22968 c -1.802603,3.71655 -2.475395,7.90361 -3.077534,11.9587 -0.692874,5.17238 -0.502651,10.41424 0.134614,15.57916 0.637413,3.52707 0.747508,5.23188 -1.162511,8.30251 -1.966305,2.3145 -3.212078,4.96829 -4.07925,7.85437 -2.276316,9.35725 -10.874817,15.80932 -19.299198,20.2329 -1.98122,0.91015 -3.422259,2.62375 -5.380641,3.54097 -5.7126044,4.81189 0.280962,-0.22766 14.322627,-12.76807 0.263234,-0.23507 -0.539058,0.28569 -0.907491,0.90418 -0.36137,0.60659 -0.360792,0.88063 -0.517937,1.57789 -0.278489,1.92138 -0.248437,3.87005 -0.244337,5.80659 -0.09807,1.72958 0.227134,3.27466 1.096066,4.75809 1.208921,2.05461 2.868638,3.73735 4.538241,5.40772 0.942335,1.11386 0.492236,0.55532 1.352881,1.67348 0,0 -15.588143,13.80647 -15.588143,13.80647 l 0,0 c -0.771225,-1.02256 -0.384979,-0.52021 -1.158134,-1.50748 -1.729468,-1.8174 -3.485527,-3.61754 -4.849906,-5.74105 -0.08787,-0.13535 -1.287897,-1.97864 -1.31112,-2.03138 -0.357004,-0.81121 -0.506671,-2.69731 -0.539364,-3.58986 -0.0085,-2.01162 -0.02799,-4.02465 0.06582,-6.03476 0.556519,-9.27009 6.575602,-12.46995 17.191627,-18.22007 1.67882,-1.26163 3.430295,-2.40505 5.227242,-3.49416 6.015889,-4.85627 0.692518,-0.5925 -13.199458,12.17335 -0.281713,0.25887 0.617618,-0.45907 0.877553,-0.7398 0.909148,-0.98197 1.286126,-2.29977 1.693943,-3.53515 0.700953,-2.99147 1.533357,-6.01372 3.554495,-8.40792 2.181768,-2.60084 2.915533,-3.64224 2.266954,-7.23011 -0.537416,-5.31968 -0.784291,-10.69732 -0.356743,-16.03378 0.47517,-4.12218 1.24468,-8.18703 2.25831,-12.21137 0,0 17.091393,-12.03142 17.091393,-12.03142 z"
           inkscape:connector-curvature="0" />
        <path
           style="color:#000000;fill:#501616;fill-opacity:1;fill-rule:evenodd;stroke:#280b0b;stroke-width:2.18502235;stroke-linecap:butt;stroke-linejoin:miter;stroke-miterlimit:4;stroke-opacity:1;stroke-dasharray:none;stroke-dashoffset:0;marker:none;visibility:visible;display:inline;overflow:visible;enable-background:accumulate"
           id="path3890"
           d="m 27.089523,753.50061 c -0.38635,0.16269 -0.799641,0.2723 -1.159068,0.48806 -0.659716,0.39603 -4.290599,3.6522 -2.312307,1.87711 25.298539,-22.70003 16.262288,-15.47887 11.735411,-10.00518 -1.606154,2.39626 -2.839638,5.03652 -4.006852,7.67046 -1.212442,2.63076 -1.325386,5.42634 -1.173053,8.26241 0.185979,2.34384 0.402604,4.68451 0.476184,7.03518 -0.08768,2.74419 0.416441,5.43102 1.053715,8.08454 0.602629,2.86051 1.733392,5.56346 2.838236,8.25747 1.00866,2.06217 1.826157,4.17819 2.287545,6.42768 0.06008,0.34127 0.119917,0.68256 0.179922,1.02386 0,0 -16.175688,13.08453 -16.175688,13.08453 l 0,0 c -0.08435,-0.35553 -0.168523,-0.71107 -0.252769,-1.0666 -0.273718,-2.16595 -0.919736,-4.21235 -1.918653,-6.16117 -1.07277,-2.79399 -2.325263,-5.5396 -2.971103,-8.47496 -0.770424,-2.72793 -1.382617,-5.53757 -1.433849,-8.38112 -0.06709,-2.35127 -0.158365,-4.70164 -0.354681,-7.0464 -0.211322,-3.03149 -0.427656,-6.06366 0.583472,-8.9971 1.085048,-2.79982 2.51504,-5.42756 3.790389,-8.14213 5.572858,-8.29964 13.759043,-14.6948 22.190782,-19.97529 0,0 -13.377633,16.03865 -13.377633,16.03865 z"
           inkscape:connector-curvature="0" />
        <path
           style="color:#000000;fill:#501616;fill-opacity:1;fill-rule:evenodd;stroke:#280b0b;stroke-width:2.18502235;stroke-linecap:butt;stroke-linejoin:miter;stroke-miterlimit:4;stroke-opacity:1;stroke-dasharray:none;stroke-dashoffset:0;marker:none;visibility:visible;display:inline;overflow:visible;enable-background:accumulate"
           id="path3892"
           d="m 219.37399,762.56477 c -0.29454,0.20121 -0.58938,0.40195 -0.8836,0.60363 -0.60612,0.41546 -1.72146,1.16228 -2.2677,1.63083 -0.39236,0.33657 -1.49898,1.42378 -1.11231,1.08068 14.03779,-12.45599 18.30656,-17.35465 13.20248,-11.59183 -1.45865,1.90063 -2.78047,3.86674 -3.49738,6.16305 -0.53149,2.21446 -0.61792,4.46824 0.11271,6.63632 0.77707,1.87438 2.14197,3.48329 3.54782,4.92601 1.7431,1.91476 3.44946,3.85904 5.13922,5.82014 1.66211,2.00216 2.67799,4.28631 3.12395,6.83133 0.16217,2.24864 -0.86781,4.22207 -2.51881,5.71386 -5.48351,4.95476 -11.0277,9.84195 -16.54157,14.76292 -2.99794,2.32992 -6.02324,4.56194 -9.24217,6.57357 -1.32563,0.41184 -1.95276,1.27904 -2.91174,2.06106 -0.25828,0.21062 -0.58579,0.32264 -0.85202,0.52311 -2.55087,1.92052 1.19908,-0.60969 -1.39932,1.10322 -5.02726,5.50358 -0.37666,0.37454 14.24431,-12.75405 0.16884,-0.1516 -0.31921,0.32283 -0.47059,0.49187 -0.47792,0.53363 -0.47614,0.98767 -0.50215,1.6877 -0.003,0.79343 0.20822,1.51675 0.526,2.23115 0,0 -15.81806,13.57904 -15.81806,13.57904 l 0,0 c -0.57212,-0.95406 -0.92952,-1.84181 -1.14824,-2.94084 -0.0946,-0.82913 -0.3436,-1.77659 -0.20735,-2.61279 1.19975,-7.36281 10.56784,-11.40698 16.66918,-15.76603 1.60832,-1.31533 3.31907,-2.454 5.14899,-3.4441 3.15165,-2.01197 6.06751,-4.35541 8.97981,-6.69535 -4.60359,4.156 -9.23829,8.27778 -13.81076,12.46801 -0.35791,0.32799 0.78842,-0.56792 1.16262,-0.8772 0.80204,-0.66292 1.6066,-1.46817 2.06366,-2.42015 0.12236,-0.25479 0.18849,-0.53291 0.28274,-0.79938 0.0969,-2.20533 -0.899,-4.18119 -2.24974,-5.88172 -1.61155,-1.96885 -3.33276,-3.84518 -5.07515,-5.69878 -1.56277,-1.66106 -3.1732,-3.42595 -4.0923,-5.52981 -1.05057,-2.43421 -1.24599,-5.01403 -0.83274,-7.63287 0.40898,-2.81286 1.34389,-4.62224 3.02003,-6.91223 4.75486,-7.32955 0.74967,-1.38097 16.98937,-16.033 1.44591,-1.30455 3.25906,-2.28519 5.0872,-2.91246 0,0 -13.86637,15.61509 -13.86637,15.61509 z"
           inkscape:connector-curvature="0" />
        <path
           style="color:#000000;fill:#501616;fill-opacity:1;fill-rule:evenodd;stroke:#280b0b;stroke-width:2.18502235;stroke-linecap:butt;stroke-linejoin:miter;stroke-miterlimit:4;stroke-opacity:1;stroke-dasharray:none;stroke-dashoffset:0;marker:none;visibility:visible;display:inline;overflow:visible;enable-background:accumulate"
           id="path3894"
           d="m 213.47311,773.16274 c 28.65555,-24.40618 15.00692,-15.60295 11.47951,-9.08311 -0.80401,1.48606 -0.86521,1.91377 -1.39704,3.52293 -0.8282,3.06425 -0.9099,6.24185 -1.7502,9.30128 -1.13537,2.75556 -3.11157,5.02512 -4.4565,7.68069 -1.15378,2.37795 -0.64361,4.5895 0.37137,6.88027 0.84726,1.54516 2.01369,2.85278 2.93173,4.35309 1.10128,1.31748 2.00524,2.77532 2.9746,4.18747 0.73253,1.28554 1.65737,2.42355 2.57622,3.57615 0,0 -15.46678,13.80943 -15.46678,13.80943 l 0,0 c -0.99238,-1.15644 -2.02335,-2.27749 -2.75001,-3.63051 -1.0332,-1.41791 -1.95575,-2.91192 -3.09458,-4.25208 -0.98467,-1.56791 -2.11618,-3.01999 -3.02979,-4.63468 -1.19337,-2.63164 -2.25572,-5.35097 -1.36623,-8.26446 0.98819,-2.81773 2.6867,-5.22802 4.52667,-7.56212 1.27619,-2.97663 1.3145,-6.16422 1.9638,-9.30771 0.33796,-1.41732 0.5434,-2.50528 1.07833,-3.8637 3.1926,-8.10735 14.10166,-14.24047 18.66326,-18.88701 0,0 -13.25436,16.17407 -13.25436,16.17407 z"
           inkscape:connector-curvature="0" />
      </g>
      <path
         sodipodi:nodetypes="csccccscsc"
         inkscape:connector-curvature="0"
         d="m 46.136643,811.69504 c 0,0 7.017614,-26.97479 27.2598,-27.60075 18.191563,-0.56254 31.520667,21.65665 31.520667,21.65665 0,0 -12.548636,20.47409 -28.399553,21.13455 -15.850926,1.32092 -30.380914,-15.19045 -30.380914,-15.19045 z m 0.660444,0 c 0,0 9.362174,4.79914 25.873535,5.45959 16.511362,0.66045 32.246468,-11.40369 32.246468,-11.40369 0,0 -15.349074,-10.26053 -31.199982,-10.26053 -11.227737,0 -26.920021,16.20463 -26.920021,16.20463 z"
         style="fill:#ffccaa;fill-opacity:1;fill-rule:evenodd;stroke:#c87137;stroke-width:0.92463654px;stroke-linecap:butt;stroke-linejoin:miter;stroke-opacity:1"
         id="eyelid_r" />
      <path
         sodipodi:nodetypes="cscssc"
         inkscape:connector-curvature="0"
         id="eye_brown_r"
         d="m 104.77534,777.51611 c -0.0797,0.33862 -19.319041,-5.21383 -31.938973,-4.45648 -13.860326,0.83186 -19.408478,5.61353 -34.188554,15.55883 5.695904,-15.68934 26.480144,-26.52579 31.340033,-28.54525 10.532984,-4.37683 31.910404,3.31529 34.418204,7.66802 1.64857,2.86134 0.36929,9.77488 0.36929,9.77488 z"
         style="fill:#502d16;stroke:#c87137;stroke-width:0.92463654px;stroke-linecap:butt;stroke-linejoin:miter;stroke-opacity:1" />
      <use
         style="stroke:#c87137"
         height="1052.3622"
         width="744.09448"
         transform="matrix(-1,0,0,1,238.89422,1.3209109)"
         id="eyelid_l"
         xlink:href="#eyelid_r"
         y="0"
         x="0" />
      <path
         style="fill:#502d16;stroke:#c87137;stroke-width:0.92463654px;stroke-linecap:butt;stroke-linejoin:miter;stroke-opacity:1"
         d="m 134.62254,778.09844 c 0.0797,0.33862 19.31904,-5.21385 31.93897,-4.45648 13.86033,0.83186 19.40848,5.61352 34.18856,15.55882 -5.69591,-15.68934 -26.48014,-26.52577 -31.34004,-28.54524 -10.53299,-4.37683 -31.91039,3.31529 -34.41821,7.66802 -1.64856,2.86135 -0.36928,9.77488 -0.36928,9.77488 z"
         id="eye_brown_l"
         inkscape:connector-curvature="0"
         sodipodi:nodetypes="cscssc" />
    </g>
  </g>
</svg>
